<?xml version="1.0" encoding="UTF-8"?><svg xmlns="http://www.w3.org/2000/svg" xmlns:xlink="http://www.w3.org/1999/xlink" height="158.8" preserveAspectRatio="xMidYMid meet" version="1.1" viewBox="108.4 133.2 206.6 158.8" width="206.6" zoomAndPan="magnify">
 <g id="surface1">
  <g id="change1_1"><path d="m308.44 167.61c-6.6 4.11-174.58 108.84-180.32 112.41-5.73 3.58-19.69-16.5-12.92-20.72 6.78-4.23 173.37-108.09 180.32-112.42s19.52 16.61 12.92 20.73" fill="#7b7879"/></g>
  <g id="change2_1"><path d="m205.01 262.92c1.79 2.88 0.92 6.67-1.96 8.46l-19.8 12.34c-2.88 1.8-6.66 0.92-8.46-1.96l-40.6-65.13c-1.8-2.88-0.92-6.66 1.96-8.46l19.8-12.34c2.87-1.79 6.66-0.92 8.46 1.96l40.6 65.13" fill="#a7a5a5"/></g>
  <g id="change3_1"><path d="m170.24 274.46c1.39 2.24 0.71 5.17-1.53 6.56l-15.35 9.58c-2.24 1.39-5.18 0.71-6.57-1.52l-31.5-50.53c-1.39-2.23-0.71-5.17 1.52-6.57l15.36-9.57c2.24-1.39 5.17-0.71 6.56 1.52l31.51 50.53" fill="#918f8f"/></g>
  <g id="change2_2"><path d="m261.97 227.41c1.8 2.88 5.58 3.75 8.46 1.96l19.8-12.34c2.88-1.8 3.76-5.58 1.97-8.46l-40.61-65.13c-1.79-2.88-5.58-3.76-8.46-1.96l-19.8 12.34c-2.88 1.79-3.75 5.58-1.96 8.46l40.6 65.13" fill="#a7a5a5"/></g>
  <g id="change3_2"><path d="m287.64 201.27c1.4 2.23 4.33 2.91 6.57 1.52l15.36-9.58c2.23-1.39 2.91-4.32 1.52-6.56l-31.5-50.53c-1.39-2.23-4.33-2.91-6.57-1.52l-15.36 9.58c-2.23 1.39-2.91 4.32-1.52 6.56l31.5 50.53" fill="#918f8f"/></g>
 </g>
</svg>